<svg data-name="Layer 1" xmlns="http://www.w3.org/2000/svg" viewBox="0 0 1000 476.399"><path d="M626.638 31.568q-13.33-26.662-39.993-26.662t-39.992 26.662L433.341 244.86h59.989c33.327 0 39.992-13.33 53.323-39.992l39.992-79.985 19.997 39.992c19.996 39.993 33.327 39.993 53.323 39.993h59.989z" fill="#f36f21"/><path d="M453.337 111.553q-13.33-26.662-39.992-26.662t-39.993 26.662l-93.316 173.3h59.99c33.326 0 39.991-13.33 53.323-39.992l19.996-39.992 19.996 39.992 45.655-85.939z" fill="#f15a29"/><path d="M27.78 406.263a33.915 33.915 0 0133.96-34.09c14.95 0 26.487 8.527 31.602 20.714l-15.999 6.823a17.043 17.043 0 100 13.115l16 6.815c-5.116 12.195-16.654 20.714-31.603 20.714a33.91 33.91 0 01-33.96-34.09zm72.135-62.934h17.834v37.37a23.045 23.045 0 0118.095-8.526c15.472 0 24.783 9.969 24.783 26.88v39.993h-18.226v-37.498c0-8.922-4.065-14.033-12.064-14.033-6.82 0-12.457 4.722-12.457 15.737v35.794H99.915zm67.939 62.934c0-23.21 17.045-34.09 31.864-34.09 8.522 0 15.21 3.146 19.537 7.734v-6.418h17.96v65.557h-17.96V431.7c-4.327 5.12-11.276 8.654-19.803 8.654-13.895 0-31.598-11.007-31.598-34.09zm51.924-.126c0-9.708-7.08-17.576-16.784-17.576a17.64 17.64 0 000 35.278c9.704 0 16.784-8.003 16.784-17.702zm26.642-62.808h17.964v95.717h-17.965zm27.802 0h17.964v95.717h-17.964zm25.179 62.934a34.026 34.026 0 0134.09-34.09c20.065 0 33.829 15.08 33.829 33.964v6.553h-50.612c2.1 7.211 8 11.934 17.441 11.934a17.36 17.36 0 0016.126-10.23l14.291 8.526c-5.638 10.223-15.995 17.434-30.548 17.434-20.456 0-34.617-15.207-34.617-34.09zm18.095-7.995h31.733c-2.362-6.823-8-10.357-15.607-10.357a17.134 17.134 0 00-16.126 10.357zm57.19-24.779h17.833v7.338a22.583 22.583 0 0118.095-8.654c15.472 0 24.783 9.969 24.783 26.88v39.993h-18.225v-37.632c0-8.788-4.066-13.9-12.065-13.9-6.819 0-12.457 4.723-12.457 15.738v35.794h-17.964zm67.938 32.774c0-23.21 17.045-34.09 31.864-34.09a25.699 25.699 0 0119.537 8.392v-7.076h17.96v63.719c0 18.487-11.668 33.44-33.828 33.44-16.653 0-28.845-8.653-34.09-18.883l15.864-8.915c3.411 6.815 9.442 11.141 18.226 11.141 9.703 0 15.868-7.6 15.868-16.126V431.7c-4.327 5.12-11.276 8.654-19.803 8.654-13.895 0-31.598-11.007-31.598-34.09zm51.924-.126c0-9.708-7.08-17.576-16.783-17.576a17.64 17.64 0 000 35.278c9.703 0 16.783-8.003 16.783-17.702zm24.672.126a34.026 34.026 0 0134.09-34.09c20.065 0 33.83 15.08 33.83 33.964v6.553h-50.613c2.1 7.211 8 11.934 17.441 11.934a17.36 17.36 0 0016.126-10.23l14.292 8.526c-5.639 10.223-15.996 17.434-30.549 17.434-20.456 0-34.617-15.207-34.617-34.09zm18.095-7.995h31.733c-2.361-6.823-8-10.357-15.607-10.357a17.134 17.134 0 00-16.126 10.357zm57.19-24.779h17.833v10.745c3.277-6.815 9.18-10.745 18.095-10.745h7.212v17.433h-11.407c-9.573 0-13.769 4.984-13.769 17.18v30.944h-17.964zm51.282 0h17.833v6.95a21.701 21.701 0 0117.438-8.266c9.31 0 16.26 3.67 20.195 10.357a24.902 24.902 0 0120.456-10.357c16.65 0 24.91 9.969 24.91 26.88v39.993h-18.226v-37.632c0-8.788-3.407-13.9-11.407-13.9-6.819 0-11.799 4.723-11.799 15.738v35.794h-18.226v-37.632c0-8.788-3.411-13.9-11.407-13.9-6.819 0-11.803 4.723-11.803 15.738v35.794h-17.964zm108.075 32.774a33.96 33.96 0 1133.96 34.09 33.915 33.915 0 01-33.96-34.09zm50.482 0c0-9.31-7.342-17.045-16.523-17.045-9.31 0-16.391 7.734-16.391 17.045s7.08 17.046 16.391 17.046c9.18 0 16.522-7.735 16.522-17.046zm23.36 0c0-23.21 17.045-34.09 31.864-34.09 8.522 0 15.21 3.146 19.537 7.734V343.33h17.96v95.717h-17.96V431.7c-4.327 5.12-11.276 8.654-19.803 8.654-13.895 0-31.598-11.007-31.598-34.09zm51.924-.126c0-9.708-7.08-17.576-16.784-17.576a17.64 17.64 0 000 35.278c9.704 0 16.784-8.003 16.784-17.702zm24.672.126a34.026 34.026 0 0134.09-34.09c20.065 0 33.83 15.08 33.83 33.964v6.553h-50.613c2.1 7.211 8 11.934 17.441 11.934a17.36 17.36 0 0016.126-10.23l14.291 8.526c-5.638 10.223-15.995 17.434-30.548 17.434-20.456 0-34.617-15.207-34.617-34.09zm18.095-7.995h31.733c-2.361-6.823-8-10.357-15.607-10.357a17.134 17.134 0 00-16.126 10.357z" fill="#fff"/></svg>